<?xml version="1.0" encoding="UTF-8" standalone="no"?>
<!-- Created with Inkscape (http://www.inkscape.org/) -->

<svg
   xmlns:dc="http://purl.org/dc/elements/1.1/"
   xmlns:cc="http://creativecommons.org/ns#"
   xmlns:rdf="http://www.w3.org/1999/02/22-rdf-syntax-ns#"
   xmlns:svg="http://www.w3.org/2000/svg"
   xmlns="http://www.w3.org/2000/svg"
   xmlns:xlink="http://www.w3.org/1999/xlink"
   version="1.0"
   width="48"
   height="48"
   id="svg1306">
  <defs
     id="defs1308">
    <linearGradient
       id="linearGradient2288">
      <stop
         id="stop2290"
         style="stop-color:#000000;stop-opacity:1"
         offset="0" />
      <stop
         id="stop2292"
         style="stop-color:#000000;stop-opacity:0"
         offset="1" />
    </linearGradient>
    <linearGradient
       id="linearGradient2243">
      <stop
         id="stop2245"
         style="stop-color:#2a5387;stop-opacity:1"
         offset="0" />
      <stop
         id="stop2247"
         style="stop-color:#3465a4;stop-opacity:1"
         offset="1" />
    </linearGradient>
    <linearGradient
       id="linearGradient2233">
      <stop
         id="stop2235"
         style="stop-color:#ffffff;stop-opacity:1"
         offset="0" />
      <stop
         id="stop2237"
         style="stop-color:#ffffff;stop-opacity:0"
         offset="1" />
    </linearGradient>
    <linearGradient
       id="linearGradient3682">
      <stop
         id="stop3684"
         style="stop-color:#497fc6;stop-opacity:1"
         offset="0" />
      <stop
         id="stop3686"
         style="stop-color:#90b3d9;stop-opacity:1"
         offset="1" />
    </linearGradient>
    <linearGradient
       id="linearGradient2834">
      <stop
         id="stop2836"
         style="stop-color:#ffffff;stop-opacity:1"
         offset="0" />
      <stop
         id="stop2838"
         style="stop-color:#b3b3b3;stop-opacity:0"
         offset="1" />
    </linearGradient>
    <linearGradient
       id="linearGradient8662">
      <stop
         id="stop8664"
         style="stop-color:#000000;stop-opacity:1"
         offset="0" />
      <stop
         id="stop8666"
         style="stop-color:#000000;stop-opacity:0"
         offset="1" />
    </linearGradient>
    <linearGradient
       x1="29.122221"
       y1="33.438889"
       x2="14.296363"
       y2="6.3463993"
       id="linearGradient2475"
       xlink:href="#linearGradient3682"
       gradientUnits="userSpaceOnUse" />
    <linearGradient
       x1="19.988434"
       y1="34.98325"
       x2="19.988434"
       y2="6.4341555"
       id="linearGradient2477"
       xlink:href="#linearGradient2243"
       gradientUnits="userSpaceOnUse" />
    <linearGradient
       x1="19.891792"
       y1="16.114628"
       x2="31.856716"
       y2="72.780548"
       id="linearGradient2479"
       xlink:href="#linearGradient2834"
       gradientUnits="userSpaceOnUse"
       gradientTransform="translate(0,-3)" />
    <linearGradient
       x1="25"
       y1="27.5"
       x2="26.673967"
       y2="10"
       id="linearGradient2481"
       xlink:href="#linearGradient2233"
       gradientUnits="userSpaceOnUse"
       gradientTransform="translate(-1,-4)" />
    <radialGradient
       cx="24.837126"
       cy="36.421127"
       r="15.644737"
       fx="24.837126"
       fy="36.421127"
       id="radialGradient2490"
       xlink:href="#linearGradient8662"
       gradientUnits="userSpaceOnUse"
       gradientTransform="matrix(1,0,0,0.536723,0,16.87306)" />
    <radialGradient
       cx="24.837126"
       cy="36.421127"
       r="15.644737"
       fx="24.837126"
       fy="36.421127"
       id="radialGradient2494"
       xlink:href="#linearGradient8662"
       gradientUnits="userSpaceOnUse"
       gradientTransform="matrix(1,0,0,0.536723,0,16.87306)" />
    <linearGradient
       x1="24"
       y1="42.25"
       x2="24"
       y2="36.615528"
       id="linearGradient2294"
       xlink:href="#linearGradient2288"
       gradientUnits="userSpaceOnUse"
       gradientTransform="matrix(0.97619,0,0,0.406377,0.571429,24.97647)" />
    <linearGradient
       x1="29.122221"
       y1="33.438889"
       x2="14.296363"
       y2="6.3463993"
       id="linearGradient3035"
       xlink:href="#linearGradient3682"
       gradientUnits="userSpaceOnUse" />
    <linearGradient
       x1="19.988434"
       y1="34.98325"
       x2="19.988434"
       y2="6.4341555"
       id="linearGradient3037"
       xlink:href="#linearGradient2243"
       gradientUnits="userSpaceOnUse" />
    <linearGradient
       x1="19.891792"
       y1="16.114628"
       x2="31.856716"
       y2="72.780548"
       id="linearGradient3039"
       xlink:href="#linearGradient2834"
       gradientUnits="userSpaceOnUse"
       gradientTransform="translate(0,-3)" />
    <linearGradient
       x1="25"
       y1="27.5"
       x2="26.673967"
       y2="10"
       id="linearGradient3041"
       xlink:href="#linearGradient2233"
       gradientUnits="userSpaceOnUse"
       gradientTransform="translate(-1,-4)" />
    <linearGradient
       x1="25"
       y1="27.5"
       x2="26.673967"
       y2="10"
       id="linearGradient3044"
       xlink:href="#linearGradient2233"
       gradientUnits="userSpaceOnUse"
       gradientTransform="translate(-75.599766,-0.3535534)" />
    <linearGradient
       x1="19.891792"
       y1="16.114628"
       x2="31.856716"
       y2="72.780548"
       id="linearGradient3047"
       xlink:href="#linearGradient2834"
       gradientUnits="userSpaceOnUse"
       gradientTransform="translate(-74.599766,0.6464466)" />
    <linearGradient
       x1="29.122221"
       y1="33.438889"
       x2="14.296363"
       y2="6.3463993"
       id="linearGradient3050"
       xlink:href="#linearGradient3682"
       gradientUnits="userSpaceOnUse"
       gradientTransform="translate(-59.9273,-4.4852814)" />
    <linearGradient
       x1="19.988434"
       y1="34.98325"
       x2="19.988434"
       y2="6.4341555"
       id="linearGradient3052"
       xlink:href="#linearGradient2243"
       gradientUnits="userSpaceOnUse"
       gradientTransform="translate(-59.9273,-4.4852814)" />
    <linearGradient
       x1="86.983467"
       y1="43.878201"
       x2="65.39624"
       y2="7.8157539"
       id="linearGradient3854"
       xlink:href="#linearGradient3682"
       gradientUnits="userSpaceOnUse" />
    <linearGradient
       x1="79.412399"
       y1="43.171093"
       x2="79.331268"
       y2="7.6389771"
       id="linearGradient3862"
       xlink:href="#linearGradient2243"
       gradientUnits="userSpaceOnUse" />
    <linearGradient
       x1="78.528511"
       y1="26.200531"
       x2="92.943069"
       y2="68.626938"
       id="linearGradient3880"
       xlink:href="#linearGradient2834"
       gradientUnits="userSpaceOnUse" />
    <linearGradient
       x1="79.412399"
       y1="43.171093"
       x2="79.331268"
       y2="7.6389771"
       id="linearGradient3900"
       xlink:href="#linearGradient2834"
       gradientUnits="userSpaceOnUse" />
    <linearGradient
       x1="78.142815"
       y1="23.560358"
       x2="86.661484"
       y2="67.754532"
       id="linearGradient3920"
       xlink:href="#linearGradient2834"
       gradientUnits="userSpaceOnUse" />
    <linearGradient
       x1="86.983467"
       y1="43.878201"
       x2="65.39624"
       y2="7.8157539"
       id="linearGradient3922"
       xlink:href="#linearGradient3682"
       gradientUnits="userSpaceOnUse" />
    <linearGradient
       x1="79.412399"
       y1="43.171093"
       x2="79.331268"
       y2="7.6389771"
       id="linearGradient3924"
       xlink:href="#linearGradient2243"
       gradientUnits="userSpaceOnUse" />
    <linearGradient
       x1="86.983467"
       y1="43.878201"
       x2="65.39624"
       y2="7.8157539"
       id="linearGradient3926"
       xlink:href="#linearGradient3682"
       gradientUnits="userSpaceOnUse" />
    <linearGradient
       x1="79.412399"
       y1="43.171093"
       x2="79.331268"
       y2="7.6389771"
       id="linearGradient3928"
       xlink:href="#linearGradient2243"
       gradientUnits="userSpaceOnUse" />
  </defs>
  <metadata
     id="metadata1311">
    <rdf:RDF>
      <cc:Work
         rdf:about="">
        <dc:format>image/svg+xml</dc:format>
        <dc:type
           rdf:resource="http://purl.org/dc/dcmitype/StillImage" />
        <dc:title></dc:title>
        <dc:date>2006-01-04</dc:date>
        <dc:creator>
          <cc:Agent>
            <dc:title>Lapo Calamandrei</dc:title>
          </cc:Agent>
        </dc:creator>
        <dc:source>http://tango-project.org</dc:source>
        <dc:subject>
          <rdf:Bag>
            <rdf:li>text</rdf:li>
            <rdf:li>a</rdf:li>
            <rdf:li>bold</rdf:li>
            <rdf:li>write</rdf:li>
            <rdf:li>letter</rdf:li>
          </rdf:Bag>
        </dc:subject>
        <cc:license
           rdf:resource="http://creativecommons.org/licenses/publicdomain/" />
        <dc:contributor>
          <cc:Agent>
            <dc:title>Andreas Nilsson</dc:title>
          </cc:Agent>
        </dc:contributor>
      </cc:Work>
      <cc:License
         rdf:about="http://creativecommons.org/licenses/publicdomain/">
        <cc:permits
           rdf:resource="http://creativecommons.org/ns#Reproduction" />
        <cc:permits
           rdf:resource="http://creativecommons.org/ns#Distribution" />
        <cc:permits
           rdf:resource="http://creativecommons.org/ns#DerivativeWorks" />
      </cc:License>
    </rdf:RDF>
  </metadata>
  <g
     id="layer5"
     style="display:inline">
    <path
       d="m 40.481863,36.421127 a 15.644737,8.3968935 0 1 1 -31.2894745,0 15.644737,8.3968935 0 1 1 31.2894745,0 z"
       transform="matrix(1.470144,0,0,0.535474,-12.76416,20.91534)"
       id="path2492"
       style="opacity:0.2;color:#000000;fill:url(#radialGradient2494);fill-opacity:1;fill-rule:evenodd;stroke:none;stroke-width:1;marker:none;visibility:visible;display:inline;overflow:visible" />
  </g>
  <g
     id="layer4"
     style="display:inline">
    <g
       transform="translate(-57.275649,-1.767767)"
       id="text3023"
       style="font-size:71.73531342px;font-style:italic;font-variant:normal;font-weight:normal;font-stretch:normal;line-height:125%;letter-spacing:0px;word-spacing:0px;fill:url(#linearGradient3926);fill-opacity:1;stroke:url(#linearGradient3928);stroke-width:1;stroke-miterlimit:4;stroke-opacity:1;stroke-dasharray:none;font-family:Symbol;-inkscape-font-specification:Symbol Italic">
      <path
         d="m 89.314164,24.475999 c -0.07009,-4.927111 -0.723924,-8.464835 -1.961513,-10.613184 -1.2143,-2.171644 -3.152459,-3.25748 -5.814483,-3.257511 -2.872238,3.1e-5 -5.405855,1.31938 -7.600861,3.958052 -2.195042,2.615374 -3.747904,6.17645 -4.658592,10.683237 -0.957417,4.880441 -0.910715,8.616652 0.140108,11.208643 1.050796,2.56865 3.08236,3.852972 6.094699,3.852971 2.732085,10e-7 5.102243,-1.120862 7.110483,-3.362593 2.031538,-2.265073 4.261589,-6.421607 6.690159,-12.469615 M 102.51935,9.3793583 97.650592,20.097623 c -0.864041,1.868127 -1.798093,3.689529 -2.802161,5.464213 -0.980794,1.774716 -1.996576,3.467687 -3.04735,5.078916 0.373586,2.078278 0.910666,3.642817 1.611243,4.69362 0.700502,1.027464 1.5645,1.541193 2.591998,1.541188 0.770554,5e-6 1.471093,-0.291887 2.101621,-0.875675 0.653795,-0.607129 1.155848,-1.412749 1.506161,-2.416864 l 1.366056,0 -0.17514,0.770594 c -0.51377,2.662058 -1.284365,4.646919 -2.31178,5.954592 -1.004149,1.284323 -2.26512,1.926485 -3.782917,1.926485 -1.61128,0 -2.755494,-0.630486 -3.432647,-1.891458 -0.677223,-1.26097 -1.097547,-3.666156 -1.260972,-7.215564 -2.521976,3.199139 -5.032243,5.522595 -7.530807,6.970375 -2.498617,1.424431 -5.242397,2.136647 -8.231347,2.136647 -4.553525,0 -8.021195,-1.611241 -10.403022,-4.833727 -2.35849,-3.245829 -3.047354,-7.343985 -2.066593,-12.29448 0.887344,-4.460085 3.222476,-8.359754 7.005402,-11.699021 3.7829,-3.33921 7.799326,-5.0088288 12.049291,-5.008862 3.339213,3.32e-5 5.861155,0.9807885 7.565833,2.942269 1.727965,1.961541 2.626991,4.903806 2.69708,8.826806 l 4.728646,-10.7883187 6.690163,0"
         id="path3078"
         style="fill:url(#linearGradient3922);fill-opacity:1;stroke:url(#linearGradient3924);stroke-width:1;stroke-miterlimit:4;stroke-opacity:1;stroke-dasharray:none" />
    </g>
    <g
       transform="translate(-57.275649,-1.767767)"
       id="g3876"
       style="font-size:71.73531342px;font-style:italic;font-variant:normal;font-weight:normal;font-stretch:normal;line-height:125%;letter-spacing:0px;word-spacing:0px;opacity:0.59782607;fill:none;stroke:url(#linearGradient3880);stroke-width:1;stroke-miterlimit:4;stroke-opacity:1;stroke-dasharray:none;font-family:Symbol;-inkscape-font-specification:Symbol Italic">
      <path
         d="m 80.84375,9.28125 c -4.024994,3.14e-5 -7.838706,1.549383 -11.5,4.78125 -3.665465,3.235582 -5.86911,6.916929 -6.71875,11.1875 -0.948135,4.785812 -0.294876,8.62699 1.90625,11.65625 2.225758,3.011333 5.370209,4.46875 9.71875,4.46875 2.847989,0 5.407299,-0.677889 7.78125,-2.03125 2.369157,-1.372796 4.806021,-3.61016 7.28125,-6.75 a 0.86367249,0.86367249 0 0 1 1.5625,0.5 c 0.16097,3.496097 0.62202,5.849028 1.15625,6.84375 0.542599,1.010411 1.306783,1.4375 2.6875,1.4375 1.270037,0 2.217882,-0.473501 3.09375,-1.59375 0.792549,-1.00874 1.445678,-2.692149 1.9375,-4.84375 -0.336269,0.591207 -0.597777,1.255948 -1.0625,1.6875 -0.756829,0.700726 -1.699358,1.125006 -2.6875,1.125 -1.309783,6e-6 -2.499456,-0.713715 -3.3125,-1.90625 a 0.86367249,0.86367249 0 0 1 0,-0.03125 c -0.809865,-1.214725 -1.333796,-2.85848 -1.71875,-5 a 0.86367249,0.86367249 0 0 1 0.125,-0.625 c 1.035152,-1.587275 2.025921,-3.268685 3,-5.03125 a 0.86367249,0.86367249 0 0 1 0,-0.03125 c 0.988797,-1.747693 1.931023,-3.53868 2.78125,-5.375 l 0,-0.03125 4.3125,-9.46875 -4.78125,0 L 91.875,20.5 a 0.86367249,0.86367249 0 0 1 -1.65625,-0.34375 c -0.06789,-3.800204 -0.925385,-6.498012 -2.46875,-8.25 -1.521453,-1.750654 -3.735306,-2.6249685 -6.90625,-2.625 z m 0.6875,0.4375 c 2.886249,3.36e-5 5.184028,1.339909 6.53125,3.71875 0.0073,0.01297 0.02396,0.01821 0.03125,0.03125 1.365958,2.386734 2.022865,6.016983 2.09375,11 a 0.86367249,0.86367249 0 0 1 -0.0625,0.3125 C 87.679364,30.871758 85.453848,35.077651 83.28125,37.5 81.142819,39.887059 78.470896,41.187501 75.5,41.1875 72.243961,41.187501 69.754246,39.61806 68.59375,36.78125 67.436337,33.92634 67.463321,30.059635 68.4375,25.09375 69.368367,20.487103 70.966495,16.758011 73.28125,14 c 2.312117,-2.779454 5.111167,-4.2812161 8.25,-4.28125 z"
         id="path3902"
         style="fill:none;stroke:url(#linearGradient3920);stroke-width:1;stroke-miterlimit:4;stroke-opacity:1;stroke-dasharray:none" />
    </g>
  </g>
</svg>
