<?xml version="1.0" encoding="UTF-8" standalone="no"?>
<!-- Generator: Adobe Illustrator 14.0.0, SVG Export Plug-In . SVG Version: 6.00 Build 43363)  -->

<svg
   xmlns:dc="http://purl.org/dc/elements/1.1/"
   xmlns:cc="http://creativecommons.org/ns#"
   xmlns:rdf="http://www.w3.org/1999/02/22-rdf-syntax-ns#"
   xmlns:svg="http://www.w3.org/2000/svg"
   xmlns="http://www.w3.org/2000/svg"
   xmlns:sodipodi="http://sodipodi.sourceforge.net/DTD/sodipodi-0.dtd"
   xmlns:inkscape="http://www.inkscape.org/namespaces/inkscape"
   version="1.0"
   id="Layer_1"
   x="0px"
   y="0px"
   width="91.849px"
   height="100px"
   viewBox="0 0 91.849 100"
   enable-background="new 0 0 91.849 100"
   xml:space="preserve"
   inkscape:version="0.48.0 r9654"
   sodipodi:docname="noun_project_94-power.svg"><metadata
   id="metadata11"><rdf:RDF><cc:Work
       rdf:about=""><dc:format>image/svg+xml</dc:format><dc:type
         rdf:resource="http://purl.org/dc/dcmitype/StillImage" /></cc:Work></rdf:RDF></metadata><defs
   id="defs9" /><sodipodi:namedview
   pagecolor="#ffffff"
   bordercolor="#666666"
   borderopacity="1"
   objecttolerance="10"
   gridtolerance="10"
   guidetolerance="10"
   inkscape:pageopacity="0"
   inkscape:pageshadow="2"
   inkscape:window-width="1016"
   inkscape:window-height="735"
   id="namedview7"
   showgrid="false"
   inkscape:zoom="3.02"
   inkscape:cx="45.9245"
   inkscape:cy="50"
   inkscape:window-x="0"
   inkscape:window-y="0"
   inkscape:window-maximized="0"
   inkscape:current-layer="Layer_1" />
<path
   d="m 12.582772,52.593294 c -0.01162,-9.34515 3.863077,-16.414995 7.608541,-20.903162 l 0,0 c 3.765793,-4.525196 7.422685,-6.705391 7.75084,-6.908673 l 0,0 c 2.445187,-1.44693 5.588068,-0.616379 7.018299,1.854945 l 0,0 c 1.427328,2.462611 0.617831,5.624367 -1.807029,7.078557 l 0,0 7.27e-4,7.27e-4 c 0,0 -0.003,7.25e-4 -0.01089,0.0058 l 0,0 c -0.0065,0.003 -0.01669,0.01017 -0.0305,0.01887 l 0,0 c -0.04937,0.03049 -0.140846,0.09075 -0.266444,0.177146 l 0,0 c -0.254828,0.169885 -0.651227,0.453753 -1.141281,0.843618 l 0,0 c -0.979384,0.779005 -2.325399,1.989257 -3.651084,3.590099 l 0,0 c -2.663717,3.243069 -5.202559,7.839413 -5.21345,14.241332 l 0,0 c 0.0022,6.453467 2.575144,12.256433 6.76202,16.496306 l 0,0 c 4.196315,4.232615 9.936842,6.836072 16.320613,6.837525 l 0,0 c 6.38377,-0.0014 12.123573,-2.60491 16.319161,-6.837525 l 0,0 c 4.188327,-4.239873 6.761293,-10.042839 6.76347,-16.496306 l 0,0 C 68.994157,46.386669 66.61431,41.889061 64.04207,38.656884 l 0,0 c -2.448817,-3.064471 -5.068973,-4.771312 -5.329608,-4.930306 l 0,0 c -0.003,-0.0022 -0.0065,-0.003 -0.0087,-0.0044 l 0,0 c -0.0037,-0.0022 -0.0058,-0.0037 -0.008,-0.0044 l 0,0 c -0.0022,-0.0022 -0.0051,-0.0022 -0.0051,-0.0022 l 0,0 0,0 C 56.268722,32.260043 55.4585,29.098288 56.884374,26.635676 l 0,0 c 1.431685,-2.471324 4.573838,-3.301875 7.0183,-1.854945 l 0,0 c 0.329606,0.202555 3.986499,2.382751 7.752291,6.908672 l 0,0 c 3.747642,4.488894 7.620158,11.558014 7.609268,20.903163 l 0,0 c -0.003,18.612612 -14.929585,33.701193 -33.34037,33.707727 l 0,0 C 27.513083,86.293761 12.587128,71.20518 12.582772,52.593294 l 0,0 z"
   id="path3"
   inkscape:connector-curvature="0"
   style="fill:#717171;fill-opacity:1" />
<path
   d="M 40.794636,50.000726 V 34.442419 18.885564 c 0,-2.863367 2.296356,-5.185859 5.129957,-5.185859 l 0,0 c 2.830697,0 5.127054,2.322492 5.127054,5.185859 l 0,0 v 15.556855 15.558307 h 0.0014 c 0,2.86119 -2.297809,5.184408 -5.128506,5.184408 l 0,0 c -2.833601,0 -5.129958,-2.323218 -5.129958,-5.184408 l 0,0 z"
   id="path5"
   inkscape:connector-curvature="0"
   style="fill:#717171;fill-opacity:1" />
</svg>