<?xml version="1.0" encoding="utf-8"?>
<!DOCTYPE svg PUBLIC "-//W3C//DTD SVG 1.1//EN" "http://www.w3.org/Graphics/SVG/1.1/DTD/svg11.dtd">
<svg version="1.1" id="Layer_1" xmlns="http://www.w3.org/2000/svg" xmlns:xlink="http://www.w3.org/1999/xlink" x="0px" y="0px"
	 viewBox="0 0 1280 671" enable-background="new 0 0 1280 671" xml:space="preserve">
<path d="M1257.3665,219.0097c-0.0112-7.4346-2.401-9.9109-9.7988-9.9656c-9.8287-0.0726-19.6646,0.1902-29.4862-0.0865
	c-17.5245-0.4938-29.9917-7.9198-35.5275-25.728c-5.3605-17.2445-13.5742-33.15-22.5472-48.6641
	c-10.4727-18.1069-24.4189-33.5558-39.6615-47.6398c-19.9597-18.4429-42.7932-32.7046-67.915-43.2253
	c-24.802-10.387-50.5527-16.5085-77.4685-17.5084c-9.2925-0.4558-18.5829-0.5997-27.8673,0.1722
	c-18.886,0.7761-37.3724,4.1364-55.1969,10.2156c-50.2407,17.1353-90.0315,48.0757-119.1372,92.4433
	c-7.2863,11.107-14.1951,22.3786-23.8064,31.687c-0.6821,0.719-1.3644,1.438-2.0461,2.1569
	c0.0007-0.0033,0.002-0.0065,0.0027-0.0098c-3.7372,3.2911-7.4744,6.5823-11.21,9.8749c0.0259-0.0032,0.0513-0.0096,0.0771-0.013
	c-0.6084,0.0963-1.066,0.3533-1.0902,1.0725c-0.0021-0.0004,0.0065-0.2123,0.0065-0.2123
	c-8.1526,4.8671-16.0439,10.2717-25.5259,12.4086c-3.3972,1.6314-6.2161,0.4233-9.5896-0.9138
	c-21.5321-8.5344-43.5288-14.0811-67.1722-12.1763c-17.167,1.3831-33.3073,5.9257-49.2577,11.7753
	c-3.9022,1.431-7.7134,1.5543-11.724,0.562c-14.351-3.5511-24.8635-12.9129-35.1351-22.7689
	c-10.5908-10.1625-17.9014-22.6594-26.0344-34.6879c-28.855-42.6754-67.6025-72.9927-116.3379-90.074
	c-17.3251-6.0723-35.1989-9.9996-53.6495-10.7471c-14.1791-1.7009-28.3578-1.6902-42.5345,0.0068
	c-10.5349,0.2878-20.8401,2.0112-30.9586,4.9114c-3.2178-0.1416-6.1282,1.196-9.0944,2.0742
	c-13.0402,3.8604-26.0294,7.895-37.871,14.8318c-0.0009-0.0012-0.0087-0.0935-0.0087-0.0935
	c-1.5402,0.2031-2.8929,0.7893-3.9688,1.9443c0-0.0027-0.0888-0.0419-0.0886-0.0408c-0.631,0.2096-1.3033,0.3403-1.8869,0.6423
	c-54.3369,28.1318-91.1508,71.428-111.0635,129.0949c-6.1036,17.6761-19.9723,28.4816-38.7503,28.6505
	c-9.8313,0.0884-19.6643-0.023-29.4958,0.0515c-7.1921,0.0545-9.5845,2.4731-9.608,9.6447
	c-0.0427,12.9982-0.0153,25.9966-0.0153,38.9949c0.0001,6.7464,0.9084,8.1052,7.2074,10.0283
	c12.2415,3.7375,24.4094,7.7729,36.7894,10.9852c15.5536,4.0359,24.3491,14.137,28.0774,29.2171
	c9.7722,39.5264,28.4315,74.2235,56.4772,103.7588c2.7706,2.9177,3.3625,5.407,2.3398,9.1375
	c-8.5116,31.0488-16.6791,62.193-25.3306,93.2023c-6.3782,22.8613-13.4139,45.5383-19.9869,68.3464
	c-3.6133,12.5381-6.0151,25.2679-3.4205,38.376c3.0869,15.5949,13.3808,24.4886,29.2131,24.926
	c12.3008,0.3398,19.5247-7.3738,24.9359-17.0811c8.8088-15.802,10.2268-33.2666,9.9228-50.8153
	c-0.3007-17.3574-0.1935-34.6374,1.8879-51.9002c0.9733-8.0721,1.6129-16.1355,3.284-24.1553
	c3.5711-17.1379,7.4255-34.1258,15.2928-49.9171c3.2446-6.5126,3.2697-6.4935,9.706-2.6195
	c56.2808,33.8748,116.413,42.1433,179.5981,25.3097c46.1233-12.288,83.5651-38.7339,114.2893-74.9822
	c10.9282-12.8932,18.9797-27.7012,28.2402-41.7159c18.6816-28.2725,38.3434-55.9044,56.6862-84.3896
	c6.0856-9.4503,14.2284-13.7108,24.1827-15.157c23.5046-3.4147,47.1581-2.9,70.7413-0.6408
	c12.3004,1.1783,22.1954,6.3423,28.9257,17.5974c8.0107,13.3961,16.9669,26.2347,25.7017,39.188
	c11.9896,17.7801,24.6591,35.0997,35.6025,53.5824c27.0293,45.6506,64.9087,79.2141,114.1252,98.8981
	c51.3982,20.5566,103.8552,21.2361,156.4135,3.907c17.2043-5.6725,33.6414-13.2127,48.8562-23.1549
	c2.9877-1.9522,4.1649-1.2031,5.5302,1.7139c6.7225,14.3645,11.0227,29.4365,14.2043,44.9434
	c5.1311,25.0081,7.762,50.2475,7.0652,75.7317c-0.3063,11.2074-0.2164,22.2973,1.5288,33.354
	c2.0537,13.0113,5.8137,25.3447,15.5691,34.8719c12.9189,12.6168,35.7765,8.3993,43.51-7.9333
	c4.0228-8.4962,5.1255-17.5151,4.5195-26.8061c-0.9504-14.575-4.8469-28.4758-9.433-42.2548
	c-14.5546-43.7302-25.2007-88.6023-38.6937-132.6367c-2.7681-9.0332-2.3627-15.578,5.0114-22.3218
	c6.3933-5.847,11.9712-12.8514,15.9025-20.8435c-0.0005-0.0001-0.001-0.0001-0.0015-0.0001
	c-0.0015-0.0005-0.0179-0.1028-0.0179-0.1028c1.8979-0.8645,2.9092-2.34,3.0433-4.4184c0.2406-0.4167,0.4796-0.8332,0.7185-1.2496
	c1.7549-0.4867,2.2535-1.7719,2.1917-3.4128c1.0859-0.2264,1.2-1.019,1.1132-1.9274c0.545-0.106,0.8956-0.392,0.8601-1.0347
	c1.1969-0.2247,1.0648-1.1484,1.0873-1.9899c0.5605-0.1284,0.9282-0.4348,0.9011-1.1051c3.276-4.6664,6.5352-9.342,8.0162-14.9704
	c0.9753-0.34,1.2761-1.1624,1.412-2.1014c0.8274-1.4191,1.774-2.7821,2.4592-4.2659c6.4412-13.951,10.8372-28.5813,14.9043-43.3738
	c3.7257-13.5507,12.1429-23.0541,26.4054-26.2096c13.4847-2.9835,26.2975-8.1273,39.4984-12.0179
	c3.7103-1.0936,5.5643-3.4464,5.4845-7.7491C1257.2216,246.0015,1257.3867,232.5042,1257.3665,219.0097z M218.9955,50.9983
	c-0.4028,0.2334-0.7958,0.3793-1.1781,0.4312C218.1998,51.3774,218.5927,51.2316,218.9955,50.9983z M473.4512,384.0744
	c-33.0474,38.9564-75.2698,62.851-125.9967,69.5654c-70.7374,9.3631-130.2289-13.8113-178.4266-65.9513
	c-21.4848-23.2422-35.7322-50.7069-44.1152-81.2517c-9.634-35.1034-9.0593-70.2185-0.076-105.2578
	c9.4429-36.8318,28.8517-68.0586,56.051-94.2031c17.7492-17.0609,38.5771-29.9828,61.4031-39.4818
	c1.3498-0.5618,2.614-1.3293,3.918-2.001l-0.0049-0.0745c1.6968,0.0757,3.2277-0.2114,4.1221-1.8936
	c0.0024,0.0079,0.1006-0.0066,0.1002-0.0081c7.1841-1.079,13.9396-3.6799,20.8153-5.8604c-0.253-0.1278-0.5131-0.2323-0.7784-0.3208
	c0.266,0.0886,0.5267,0.1934,0.7804,0.3215l-0.0588-0.2185c0.0004-0.0012,0.0012-0.0022,0.0016-0.0034
	c11.621-1.5493,23.2426-3.0955,34.8641-4.6415c8.6392,0.0034,17.2783,0.0068,25.9174,0.0103
	c4.9252,0.587,9.838,1.3263,14.7783,1.7289c9.9146,0.8081,19.3903,3.844,29.1307,5.5161
	c18.3152,5.7372,35.8695,13.223,52.0863,23.5371c40.0852,25.4949,67.4723,61.0193,83.0002,105.8143
	c0.6494,1.8735,1.3987,3.7125,2.1016,5.5675c0.6924,0.1615,1.2275-0.3723,1.7383-0.8257c-0.5107,0.4536-1.0459,0.9875-1.7383,0.8262
	c0.2699,2.1442,0.5332,4.2899,1.8652,6.1094c0,0-0.1125,0.0375-0.114,0.0375c-0.0002-0.0001-0.0005-0.0002-0.0007-0.0002
	c2.0027,10.4113,4.4966,20.7135,5.452,31.3339C525.3928,289.4213,510.5145,340.3842,473.4512,384.0744z M738.0808,203.2571
	c-0.4362,0.1797-0.6996,0.5104-0.8408,0.9395C737.3811,203.7675,737.6445,203.4368,738.0808,203.2571z M538.3594,234.2538
	c0.1207-0.2794,0.2415-0.5587,0.3623-0.8381c0.0004,0.0001,0.0007,0.0002,0.001,0.0004
	C538.6006,233.6957,538.48,233.9748,538.3594,234.2538z M739.4265,208.5292c-2.4021,12.7773-4.0369,25.6453-4.2861,38.6558
	c-0.1265,6.6028-0.0221,13.2101-1.124,20.1334c-3.1633-4.3465-6.8687-8.4023-9.3857-13.0955
	c-6.873-12.8154-18.2053-18.8682-31.5959-22.2256c-35.7615-8.9663-71.4641-8.7048-107.0159,0.9926
	c-11.7266,3.1987-21.4392,9.351-27.5779,20.4944c-2.8381,5.1519-6.1965,10.1365-10.979,14.5712
	c-0.1155-12.4433,0.1039-24.5035-0.7698-36.5345c-0.6531-8.9901-1.7388-17.8916-4.6833-26.4706
	c9.3298,3.2726,17.9042,8.5852,27.8087,10.3047c2.62,0.4548,5.2294,1.0493,7.87,1.2902c5.3088,0.4844,9.9058-0.5735,15.0208-3.1679
	c9.8572-4.9997,20.5693-8.3813,31.6711-10.1501c23.8297-3.7969,46.5198,0.481,67.874,10.8215
	c8.3634,4.0499,15.869,2.1382,23.6519,0.6885c7.6267-1.4206,14.5221-5.1984,21.2269-9.1109c0,0.0003,0.0001,0.0005,0.0001,0.0008
	C740.4438,204.5764,739.7747,206.6767,739.4265,208.5292z M1143.4735,367.6084c0.2904,0.2567,0.3973,0.7401,0.427,1.2217
	C1143.8705,368.3476,1143.7634,367.8648,1143.4735,367.6084z M1163.1399,273.0555c-1.7465,23.9592-8.2449,46.6223-18.5857,68.2426
	c-0.6329,1.3231-1.0912,2.7297-1.6306,4.0975c-0.0001,0.0007-0.0002,0.0015-0.0005,0.0021
	c-3.1934,4.5472-6.0796,9.2673-8.1539,14.4457c0,0-0.0656-0.0287-0.0658-0.0289c-0.0259,0.7346,0.1309,1.5178,0.2738,2.2984
	c-0.1431-0.7807-0.2998-1.5639-0.2739-2.2986c-8.2343,12.2887-16.8622,24.2772-27.4302,34.7099
	c-43.0326,42.4819-94.3641,63.5248-155.2345,60.983c-79.6602-3.3263-158.0276-59.6401-183.0787-145.29
	c-5.8347-19.9489-7.9879-40.2048-7.6927-60.8507c0.0403-2.8257-0.0298-5.653-0.0485-8.4806
	c-0.7201,0.1199-1.3007,0.3611-1.6849,0.8053c0.3843-0.4443,0.9648-0.6859,1.6852-0.8063c0.005-0.5433,0.0099-1.0865,0.0148-1.6298
	c-1.0813-0.7684-1.3344-1.8386-1.3126-2.9324c-0.0217,1.0938,0.2313,2.1634,1.3126,2.93
	c1.3468-10.1688,2.6936-20.3351,4.0405-30.5013l-0.205-0.1594c0.0001-0.0004,0.0001-0.0009,0.0001-0.0012
	c2.1038-2.1859,1.2981-5.2584,2.3647-7.7599c4.6648-13.1166,9.0444-26.3313,15.5809-38.7131
	c30.662-58.0826,78.2321-94.3235,142.6334-105.9931c65.4231-11.8547,124.3485,4.28,173.957,49.3425
	c34.7626,31.5768,55.3126,71.2731,62.4905,117.8034c1.2194,7.9043,1.686,15.8479,2.1796,23.8032
	c0.0001,0.0002,0.0001,0.0005,0.0001,0.0008C1163.999,255.7395,1164.7048,264.4471,1163.1399,273.0555z"/>
</svg>
