<?xml version="1.0" encoding="UTF-8" standalone="no"?>
<svg
   xmlns:dc="http://purl.org/dc/elements/1.1/"
   xmlns:cc="http://creativecommons.org/ns#"
   xmlns:rdf="http://www.w3.org/1999/02/22-rdf-syntax-ns#"
   xmlns:svg="http://www.w3.org/2000/svg"
   xmlns="http://www.w3.org/2000/svg"
   xmlns:sodipodi="http://sodipodi.sourceforge.net/DTD/sodipodi-0.dtd"
   xmlns:inkscape="http://www.inkscape.org/namespaces/inkscape"
   width="100"
   height="4"
   viewBox="0 0 80 3.2"
   version="1.1"
   id="svg2"
   inkscape:version="0.48.5 r10040"
   sodipodi:docname="poignee.svg">
  <metadata
     id="metadata11">
    <rdf:RDF>
      <cc:Work
         rdf:about="">
        <dc:format>image/svg+xml</dc:format>
        <dc:type
           rdf:resource="http://purl.org/dc/dcmitype/StillImage" />
      </cc:Work>
    </rdf:RDF>
  </metadata>
  <defs
     id="defs9" />
  <sodipodi:namedview
     pagecolor="#ffffff"
     bordercolor="#666666"
     borderopacity="1"
     objecttolerance="10"
     gridtolerance="10"
     guidetolerance="10"
     inkscape:pageopacity="0"
     inkscape:pageshadow="2"
     inkscape:window-width="1383"
     inkscape:window-height="724"
     id="namedview7"
     showgrid="false"
     inkscape:zoom="7.51"
     inkscape:cx="50"
     inkscape:cy="2"
     inkscape:window-x="0"
     inkscape:window-y="0"
     inkscape:window-maximized="0"
     inkscape:current-layer="svg2" />
  <path
     style="fill:#483737;fill-opacity:1;fill-rule:nonzero;stroke:#000000;stroke-width:0.04260986;stroke-linecap:butt;stroke-linejoin:miter;stroke-miterlimit:4;stroke-opacity:1;stroke-dasharray:none"
     d="M 30.187397,2.453505 C 29.467043,2.0779024 29.250078,1.5995937 29.543058,1.033033 c 0.545874,-1.05560289 2.387361,-0.75086586 2.39837,0.3968922 0.0049,0.5059663 -0.165005,0.7553324 -0.670986,0.9850664 -0.542461,0.2462975 -0.675473,0.2510274 -1.083045,0.038514 z"
     id="path3031-0"
     inkscape:connector-curvature="0" />
  <path
     style="fill:#483737;fill-opacity:1;fill-rule:nonzero;stroke:#000000;stroke-width:0.04260986;stroke-linecap:butt;stroke-linejoin:miter;stroke-miterlimit:4;stroke-opacity:1;stroke-dasharray:none"
     d="M 33.628143,2.453505 C 32.907789,2.0779024 32.690824,1.5995937 32.983804,1.033033 c 0.545874,-1.05560292 2.387361,-0.75086592 2.39837,0.3968922 0.0049,0.5059663 -0.165005,0.7553324 -0.670986,0.9850664 -0.542461,0.2462975 -0.675473,0.2510274 -1.083045,0.038514 z"
     id="path3031"
     inkscape:connector-curvature="0" />
  <path
     style="fill:#483737;fill-opacity:1;fill-rule:nonzero;stroke:#000000;stroke-width:0.04260986;stroke-linecap:butt;stroke-linejoin:miter;stroke-miterlimit:4;stroke-opacity:1;stroke-dasharray:none"
     d="M 37.068887,2.453505 C 36.348533,2.0779024 36.131568,1.5995937 36.424548,1.033033 c 0.545874,-1.05560289 2.387361,-0.75086587 2.398369,0.3968922 0.0049,0.5059663 -0.165004,0.7553324 -0.670986,0.9850664 -0.54246,0.2462975 -0.675472,0.2510274 -1.083044,0.038514 z"
     id="path3031-0-5"
     inkscape:connector-curvature="0" />
  <path
     style="fill:#483737;fill-opacity:1;fill-rule:nonzero;stroke:#000000;stroke-width:0.04260986;stroke-linecap:butt;stroke-linejoin:miter;stroke-miterlimit:4;stroke-opacity:1;stroke-dasharray:none"
     d="M 40.509633,2.453505 C 39.789279,2.0779024 39.572315,1.5995937 39.865295,1.033033 c 0.545874,-1.05560292 2.38736,-0.75086592 2.39837,0.3968922 0.0049,0.5059663 -0.165006,0.7553324 -0.670986,0.9850664 -0.542462,0.2462975 -0.675474,0.2510274 -1.083046,0.038514 z"
     id="path3031-9"
     inkscape:connector-curvature="0" />
  <path
     style="fill:#483737;fill-opacity:1;fill-rule:nonzero;stroke:#000000;stroke-width:0.04260986;stroke-linecap:butt;stroke-linejoin:miter;stroke-miterlimit:4;stroke-opacity:1;stroke-dasharray:none"
     d="M 43.950379,2.453505 C 43.230025,2.0779024 43.01306,1.5995937 43.30604,1.0330329 c 0.545874,-1.05560277 2.387361,-0.75086577 2.39837,0.3968923 0.0049,0.5059663 -0.165005,0.7553324 -0.670986,0.9850664 -0.542461,0.2462975 -0.675473,0.2510274 -1.083045,0.038514 z"
     id="path3031-0-6"
     inkscape:connector-curvature="0" />
  <path
     style="fill:#483737;fill-opacity:1;fill-rule:nonzero;stroke:#000000;stroke-width:0.04260986;stroke-linecap:butt;stroke-linejoin:miter;stroke-miterlimit:4;stroke-opacity:1;stroke-dasharray:none"
     d="M 47.391125,2.453505 C 46.670771,2.0779024 46.453806,1.5995937 46.746786,1.033033 c 0.545874,-1.05560293 2.387361,-0.75086593 2.39837,0.3968922 0.0049,0.5059663 -0.165005,0.7553324 -0.670986,0.9850664 -0.542461,0.2462975 -0.675473,0.2510274 -1.083045,0.038514 z"
     id="path3031-7"
     inkscape:connector-curvature="0" />
</svg>
